0
SECTION
2
TABLES
0
TABLE
2
LAYER
0
LAYER
70
0
2
shiti
62
10
6
CONTINUOUS
0
LAYER
70
0
2
zhuji
62
50
6
CONTINUOUS
0
ENDTAB
0
ENDSEC
0
SECTION
2
ENTITIES
0
POLYLINE
8
shiti
66
1
0
VERTEX
8
shiti
10
-5
20
-5
0
VERTEX
8
shiti
10
5
20
-5
0
VERTEX
8
shiti
10
0
20
5
0
VERTEX
8
shiti
10
-5
20
-5
0
SEQEND
0
POLYLINE
8
shiti
66
1
0
VERTEX
8
shiti
10
639.5
20
-21.6928
0
VERTEX
8
shiti
10
649.5
20
-21.6928
0
VERTEX
8
shiti
10
644.5
20
-11.6928
0
VERTEX
8
shiti
10
639.5
20
-21.6928
0
SEQEND
0
POLYLINE
8
shiti
66
1
0
VERTEX
8
shiti
10
0
20
0
0
VERTEX
8
shiti
10
40.7
20
-1.25823431652444
0
VERTEX
8
shiti
10
81.3
20
-2.54642864701319
0
VERTEX
8
shiti
10
122.1
20
-3.85217294957331
0
VERTEX
8
shiti
10
163
20
-5.18763723816912
0
VERTEX
8
shiti
10
203.5
20
-6.61200158262219
0
VERTEX
8
shiti
10
245.5
20
-8.03035571761055
0
VERTEX
8
shiti
10
286.4
20
-9.43658000620636
0
VERTEX
8
shiti
10
327
20
-10.8710143366951
0
VERTEX
8
shiti
10
368.6
20
-12.2317885275407
0
VERTEX
8
shiti
10
407.1
20
-13.5457531512801
0
VERTEX
8
shiti
10
451.4
20
-14.9881069650892
0
VERTEX
8
shiti
10
507.9
20
-16.1600990752521
0
VERTEX
8
shiti
10
576.1
20
-16.7500695515904
0
VERTEX
8
shiti
10
644.5
20
-16.6928
0
SEQEND
0
TEXT
8
zhuji
10
-5
20
-5
40
15
1
A
0
TEXT
8
zhuji
10
35.7
20
-6.25823431652444
40
15
1
1
0
TEXT
8
zhuji
10
76.3
20
-7.54642864701319
40
15
1
2
0
TEXT
8
zhuji
10
117.1
20
-8.85217294957331
40
15
1
3
0
TEXT
8
zhuji
10
158
20
-10.1876372381691
40
15
1
4
0
TEXT
8
zhuji
10
198.5
20
-11.6120015826222
40
15
1
5
0
TEXT
8
zhuji
10
240.5
20
-13.0303557176106
40
15
1
6
0
TEXT
8
zhuji
10
281.4
20
-14.4365800062064
40
15
1
7
0
TEXT
8
zhuji
10
322
20
-15.8710143366951
40
15
1
8
0
TEXT
8
zhuji
10
363.6
20
-17.2317885275407
40
15
1
9
0
TEXT
8
zhuji
10
402.1
20
-18.5457531512801
40
15
1
10
0
TEXT
8
zhuji
10
446.4
20
-19.9881069650892
40
15
1
11
0
TEXT
8
zhuji
10
502.9
20
-21.1600990752521
40
15
1
12
0
TEXT
8
zhuji
10
571.1
20
-21.7500695515904
40
15
1
13
0
TEXT
8
zhuji
10
639.5
20
-21.6928
40
15
1
B
0
ENDSEC
0
EOF
